<svg id="icons" xmlns="http://www.w3.org/2000/svg" viewBox="0 0 128 128"><defs><style>.cls-1{fill:#96d7db;}.cls-2{fill:#f49139;}.cls-3{fill:#f7b1c2;}.cls-4{fill:#eeda48;}.cls-5{fill:#fff;}.cls-6{fill:#f06a55;}.cls-7{fill:none;stroke:#3d344c;stroke-linecap:round;stroke-linejoin:round;stroke-width:2px;}</style></defs><title>cake</title><path class="cls-1" d="M11,105H117a2,2,0,0,1,2,2v0a12,12,0,0,1-12,12H21A12,12,0,0,1,9,107v0a2,2,0,0,1,2-2Z"/><path class="cls-2" d="M79.5,57C71.75,57,71.75,47,64,47S56.25,57,48.5,57,40.75,47,33,47V71H95V47C87.25,47,87.25,57,79.5,57Z"/><path class="cls-3" d="M91,37H37a4,4,0,0,0-4,4v6c7.75,0,7.75,10,15.5,10S56.25,47,64,47s7.75,10,15.5,10S87.25,47,95,47V41A4,4,0,0,0,91,37Z"/><path class="cls-4" d="M108,71H20a4,4,0,0,0-4,4v6c12,0,12,10,24,10S52,81,64,81,76,91,88,91s12-10,24-10V75A4,4,0,0,0,108,71Z"/><path class="cls-2" d="M64,81C52,81,52,91,40,91S28,81,16,81v24h96V81c-12,0-12,10-24,10S76,81,64,81Z"/><path class="cls-5" d="M18,107a2,2,0,0,1,2-2h5V75a4,4,0,0,1,4-4H20a4,4,0,0,0-4,4v30H11a2,2,0,0,0-2,2,12,12,0,0,0,12,12h9A12,12,0,0,1,18,107Z"/><path class="cls-5" d="M42,47V41a4,4,0,0,1,4-4H37a4,4,0,0,0-4,4V71h9Z"/><path class="cls-4" d="M69.33,15.05A62.13,62.13,0,0,0,64,7s-8,10-8,16a8,8,0,0,0,2.13,5.42A31.27,31.27,0,0,0,69.33,15.05Z"/><path class="cls-6" d="M64,31a8,8,0,0,0,8-8c0-2.32-1.2-5.24-2.67-7.95a31.27,31.27,0,0,1-11.2,13.37A8,8,0,0,0,64,31Z"/><path class="cls-5" d="M61.13,28.42A8,8,0,0,1,59,23c0-4.34,4.18-10.77,6.5-14C64.61,7.77,64,7,64,7s-8,10-8,16a8,8,0,0,0,9.51,7.85A8,8,0,0,1,61.13,28.42Z"/><path class="cls-7" d="M69.33,15.05A62.13,62.13,0,0,0,64,7s-8,10-8,16a8,8,0,0,0,2.13,5.42A31.27,31.27,0,0,0,69.33,15.05Z"/><path class="cls-7" d="M64,31a8,8,0,0,0,8-8c0-2.32-1.2-5.24-2.67-7.95a31.27,31.27,0,0,1-11.2,13.37A8,8,0,0,0,64,31Z"/><path class="cls-7" d="M11,105H117a2,2,0,0,1,2,2v0a12,12,0,0,1-12,12H21A12,12,0,0,1,9,107v0a2,2,0,0,1,2-2Z"/><line class="cls-7" x1="64" y1="31" x2="64" y2="37"/><path class="cls-7" d="M79.5,57C71.75,57,71.75,47,64,47S56.25,57,48.5,57,40.75,47,33,47V71H95V47C87.25,47,87.25,57,79.5,57Z"/><path class="cls-7" d="M91,37H37a4,4,0,0,0-4,4v6c7.75,0,7.75,10,15.5,10S56.25,47,64,47s7.75,10,15.5,10S87.25,47,95,47V41A4,4,0,0,0,91,37Z"/><path class="cls-7" d="M108,71H20a4,4,0,0,0-4,4v6c12,0,12,10,24,10S52,81,64,81,76,91,88,91s12-10,24-10V75A4,4,0,0,0,108,71Z"/><path class="cls-7" d="M64,81C52,81,52,91,40,91S28,81,16,81v24h96V81c-12,0-12,10-24,10S76,81,64,81Z"/><circle class="cls-5" cx="40" cy="82" r="3"/><circle class="cls-5" cx="64" cy="90" r="3"/><circle class="cls-5" cx="88" cy="82" r="3"/><circle class="cls-7" cx="40" cy="82" r="3"/><circle class="cls-7" cx="64" cy="90" r="3"/><circle class="cls-7" cx="88" cy="82" r="3"/></svg>